<svg xmlns="http://www.w3.org/2000/svg" width="39.163" height="48.954" viewBox="0 0 39.163 48.954">
  <path id="Path_370" data-name="Path 370" d="M38.268,11.791h-4.9a9.791,9.791,0,0,0-19.582,0H8.9a4.91,4.91,0,0,0-4.9,4.9V46.059a4.91,4.91,0,0,0,4.9,4.9H38.268a4.91,4.91,0,0,0,4.9-4.9V16.686A4.91,4.91,0,0,0,38.268,11.791ZM23.582,6.9a4.91,4.91,0,0,1,4.9,4.9H18.686A4.91,4.91,0,0,1,23.582,6.9ZM38.268,46.059H8.9V16.686h4.9v4.9a2.448,2.448,0,1,0,4.9,0v-4.9h9.791v4.9a2.448,2.448,0,0,0,4.9,0v-4.9h4.9Z" transform="translate(-4 -2)" fill="rgba(0,0,0,0.24)"/>
</svg>
